<mxfile host="app.diagrams.net" agent="Mozilla/5.0 (Windows NT 10.0; Win64; x64) AppleWebKit/537.36 (KHTML, like Gecko) Chrome/131.0.0.0 Safari/537.36" version="25.0.3">
  <diagram name="Page-1" id="6Kq-auV5dpyLXUJnvOoX">
    <mxGraphModel dx="1674" dy="738" grid="0" gridSize="10" guides="1" tooltips="1" connect="1" arrows="1" fold="1" page="1" pageScale="1" pageWidth="3300" pageHeight="4681" math="0" shadow="0">
      <root>
        <mxCell id="0" />
        <mxCell id="1" parent="0" />
        <mxCell id="y5-CeOcDPug-oQbGVqkk-17" value="" style="rounded=0;whiteSpace=wrap;html=1;" parent="1" vertex="1">
          <mxGeometry x="92" y="145" width="316" height="679" as="geometry" />
        </mxCell>
        <mxCell id="y5-CeOcDPug-oQbGVqkk-1" value="&lt;span style=&quot;color: rgb(60, 60, 60);&quot; lang=&quot;EN-GB&quot;&gt;IEDU1WVPAPP008&lt;/span&gt;" style="rounded=1;whiteSpace=wrap;html=1;fontFamily=Tahoma;fontSize=17;fillColor=#dae8fc;strokeColor=#6c8ebf;" parent="1" vertex="1">
          <mxGeometry x="192" y="171" width="187" height="44" as="geometry" />
        </mxCell>
        <mxCell id="y5-CeOcDPug-oQbGVqkk-2" value="&lt;span style=&quot;color: rgb(60, 60, 60);&quot; lang=&quot;EN-GB&quot;&gt;IEDU1WVPAPP110&lt;/span&gt;" style="rounded=1;whiteSpace=wrap;html=1;fontFamily=Tahoma;fontSize=17;fillColor=#dae8fc;strokeColor=#6c8ebf;" parent="1" vertex="1">
          <mxGeometry x="192" y="224" width="187" height="44" as="geometry" />
        </mxCell>
        <mxCell id="y5-CeOcDPug-oQbGVqkk-3" value="&lt;span style=&quot;color: rgb(60, 60, 60);&quot; lang=&quot;EN-GB&quot;&gt;IEDU1WVPAPP111&lt;/span&gt;" style="rounded=1;whiteSpace=wrap;html=1;fontFamily=Tahoma;fontSize=17;fillColor=#dae8fc;strokeColor=#6c8ebf;" parent="1" vertex="1">
          <mxGeometry x="192" y="277" width="187" height="44" as="geometry" />
        </mxCell>
        <mxCell id="y5-CeOcDPug-oQbGVqkk-4" value="&lt;span style=&quot;color: rgb(60, 60, 60);&quot; lang=&quot;EN-GB&quot;&gt;IEDU1WVPAPP112&lt;/span&gt;" style="rounded=1;whiteSpace=wrap;html=1;fontFamily=Tahoma;fontSize=17;fillColor=#dae8fc;strokeColor=#6c8ebf;" parent="1" vertex="1">
          <mxGeometry x="192" y="330" width="187" height="44" as="geometry" />
        </mxCell>
        <mxCell id="y5-CeOcDPug-oQbGVqkk-6" value="&lt;span style=&quot;color: rgb(60, 60, 60);&quot; lang=&quot;EN-GB&quot;&gt;IEDU1WVPAPP011&lt;/span&gt;" style="rounded=1;whiteSpace=wrap;html=1;fontFamily=Tahoma;fontSize=17;fillColor=#dae8fc;strokeColor=#6c8ebf;" parent="1" vertex="1">
          <mxGeometry x="190" y="383" width="187" height="44" as="geometry" />
        </mxCell>
        <mxCell id="y5-CeOcDPug-oQbGVqkk-7" value="&lt;span style=&quot;color: rgb(60, 60, 60);&quot; lang=&quot;EN-GB&quot;&gt;IEDU1WVPAPP106&lt;/span&gt;" style="rounded=1;whiteSpace=wrap;html=1;fontFamily=Tahoma;fontSize=17;fillColor=#dae8fc;strokeColor=#6c8ebf;" parent="1" vertex="1">
          <mxGeometry x="190" y="436" width="187" height="44" as="geometry" />
        </mxCell>
        <mxCell id="y5-CeOcDPug-oQbGVqkk-8" value="&lt;span style=&quot;color: rgb(60, 60, 60);&quot; lang=&quot;EN-GB&quot;&gt;IEDU1WVPAPP109&lt;/span&gt;" style="rounded=1;whiteSpace=wrap;html=1;fontFamily=Tahoma;fontSize=17;fillColor=#dae8fc;strokeColor=#6c8ebf;" parent="1" vertex="1">
          <mxGeometry x="190" y="489" width="187" height="44" as="geometry" />
        </mxCell>
        <mxCell id="y5-CeOcDPug-oQbGVqkk-9" value="&lt;span style=&quot;color: rgb(60, 60, 60);&quot; lang=&quot;EN-GB&quot;&gt;IEDU1WVPAPP113&lt;/span&gt;" style="rounded=1;whiteSpace=wrap;html=1;fontFamily=Tahoma;fontSize=17;fillColor=#dae8fc;strokeColor=#6c8ebf;" parent="1" vertex="1">
          <mxGeometry x="190" y="542" width="187" height="44" as="geometry" />
        </mxCell>
        <mxCell id="y5-CeOcDPug-oQbGVqkk-10" value="&lt;span style=&quot;color: rgb(60, 60, 60);&quot; lang=&quot;EN-GB&quot;&gt;IEDU1WVPSQL112&lt;/span&gt;" style="rounded=1;whiteSpace=wrap;html=1;fontFamily=Tahoma;fontSize=17;fillColor=#fff2cc;strokeColor=#d6b656;" parent="1" vertex="1">
          <mxGeometry x="190" y="595" width="187" height="44" as="geometry" />
        </mxCell>
        <mxCell id="y5-CeOcDPug-oQbGVqkk-11" value="&lt;span style=&quot;color: rgb(60, 60, 60);&quot; lang=&quot;EN-GB&quot;&gt;IEDU1WVPSQL113&lt;/span&gt;" style="rounded=1;whiteSpace=wrap;html=1;fontFamily=Tahoma;fontSize=17;fillColor=#fff2cc;strokeColor=#d6b656;" parent="1" vertex="1">
          <mxGeometry x="190" y="648" width="187" height="44" as="geometry" />
        </mxCell>
        <mxCell id="y5-CeOcDPug-oQbGVqkk-12" value="&lt;span style=&quot;color: rgb(60, 60, 60);&quot; lang=&quot;EN-GB&quot;&gt;IEDU1WVPSQL109&lt;/span&gt;" style="rounded=1;whiteSpace=wrap;html=1;fontFamily=Tahoma;fontSize=17;fillColor=#fff2cc;strokeColor=#d6b656;" parent="1" vertex="1">
          <mxGeometry x="190" y="701" width="187" height="44" as="geometry" />
        </mxCell>
        <mxCell id="y5-CeOcDPug-oQbGVqkk-13" value="&lt;span style=&quot;color: rgb(60, 60, 60);&quot; lang=&quot;EN-GB&quot;&gt;IEDU1WVPSQL110&lt;/span&gt;" style="rounded=1;whiteSpace=wrap;html=1;fontFamily=Tahoma;fontSize=17;fillColor=#fff2cc;strokeColor=#d6b656;" parent="1" vertex="1">
          <mxGeometry x="190" y="754" width="187" height="44" as="geometry" />
        </mxCell>
        <mxCell id="y5-CeOcDPug-oQbGVqkk-14" value="APPLICATION SERVERS" style="rounded=1;whiteSpace=wrap;html=1;fillColor=#dae8fc;strokeColor=#6c8ebf;fontFamily=Helvetica;fontStyle=1;fontSize=15;rotation=-90;" parent="1" vertex="1">
          <mxGeometry x="-57.75" y="352.25" width="415.5" height="55" as="geometry" />
        </mxCell>
        <mxCell id="y5-CeOcDPug-oQbGVqkk-15" value="DATABASE SERVERS" style="rounded=1;whiteSpace=wrap;html=1;fillColor=#fff2cc;strokeColor=#d6b656;fontFamily=Helvetica;fontStyle=1;fontSize=15;rotation=-90;" parent="1" vertex="1">
          <mxGeometry x="48.13" y="670.13" width="203.75" height="55" as="geometry" />
        </mxCell>
        <mxCell id="y5-CeOcDPug-oQbGVqkk-18" value="&lt;font&gt;SCOM Agents are installed in all servers&lt;/font&gt;" style="text;html=1;align=center;verticalAlign=middle;resizable=0;points=[];autosize=1;strokeColor=none;fillColor=none;fontSize=17;fontFamily=Helvetica;fontStyle=1" parent="1" vertex="1">
          <mxGeometry x="90" y="113" width="322" height="32" as="geometry" />
        </mxCell>
        <mxCell id="y5-CeOcDPug-oQbGVqkk-20" value="" style="rounded=0;whiteSpace=wrap;html=1;spacing=7;" parent="1" vertex="1">
          <mxGeometry x="510" y="146" width="317" height="678" as="geometry" />
        </mxCell>
        <mxCell id="y5-CeOcDPug-oQbGVqkk-21" value="&lt;font&gt;WINDOWS SERVER&lt;/font&gt;" style="rounded=0;whiteSpace=wrap;html=1;fontSize=24;fillColor=#1ba1e2;fontColor=#ffffff;strokeColor=#006EAF;fontFamily=Helvetica;" parent="1" vertex="1">
          <mxGeometry x="510" y="146" width="317" height="61" as="geometry" />
        </mxCell>
        <mxCell id="y5-CeOcDPug-oQbGVqkk-22" value="&lt;font style=&quot;font-size: 19px;&quot;&gt;SCOM DATABASE&lt;/font&gt;" style="shape=cylinder3;whiteSpace=wrap;html=1;boundedLbl=1;backgroundOutline=1;size=15;fillColor=#ffff88;strokeColor=#36393d;fontStyle=1" parent="1" vertex="1">
          <mxGeometry x="559" y="588.5" width="238" height="163" as="geometry" />
        </mxCell>
        <mxCell id="y5-CeOcDPug-oQbGVqkk-28" value="&lt;font style=&quot;font-size: 15px;&quot;&gt;NEW RELIC&lt;/font&gt;&lt;div&gt;&lt;font style=&quot;font-size: 15px;&quot;&gt;INFRASTRUCTURE&lt;/font&gt;&lt;div&gt;&lt;font style=&quot;font-size: 15px;&quot;&gt;AGENT&lt;/font&gt;&lt;/div&gt;&lt;/div&gt;" style="rounded=0;whiteSpace=wrap;html=1;align=left;fontStyle=1;dashed=1;spacing=10;" parent="1" vertex="1">
          <mxGeometry x="609" y="256" width="154" height="61" as="geometry" />
        </mxCell>
        <mxCell id="y5-CeOcDPug-oQbGVqkk-29" value="" style="rounded=0;whiteSpace=wrap;html=1;spacing=7;" parent="1" vertex="1">
          <mxGeometry x="926" y="145" width="317" height="678" as="geometry" />
        </mxCell>
        <mxCell id="y5-CeOcDPug-oQbGVqkk-33" style="edgeStyle=orthogonalEdgeStyle;rounded=0;orthogonalLoop=1;jettySize=auto;html=1;strokeWidth=2;" parent="1" source="y5-CeOcDPug-oQbGVqkk-30" target="y5-CeOcDPug-oQbGVqkk-32" edge="1">
          <mxGeometry relative="1" as="geometry" />
        </mxCell>
        <mxCell id="y5-CeOcDPug-oQbGVqkk-30" value="&lt;div&gt;&lt;br&gt;&lt;/div&gt;&lt;div&gt;&lt;br&gt;&lt;/div&gt;&lt;div&gt;&lt;br&gt;&lt;/div&gt;&lt;div&gt;&lt;br&gt;&lt;/div&gt;&lt;div&gt;&lt;br&gt;&lt;/div&gt;&lt;div&gt;&lt;font style=&quot;font-size: 16px;&quot;&gt;NEW RELIC&lt;/font&gt;&lt;/div&gt;&lt;div&gt;&lt;font style=&quot;font-size: 16px;&quot;&gt;DATABASE&lt;/font&gt;&lt;/div&gt;" style="shape=cylinder3;whiteSpace=wrap;html=1;boundedLbl=1;backgroundOutline=1;size=15;fillColor=#d5e8d4;strokeColor=#82b366;fontStyle=1;" parent="1" vertex="1">
          <mxGeometry x="965.5" y="205" width="238" height="163" as="geometry" />
        </mxCell>
        <mxCell id="y5-CeOcDPug-oQbGVqkk-31" value="" style="shape=image;verticalLabelPosition=bottom;labelBackgroundColor=default;verticalAlign=top;aspect=fixed;imageAspect=0;image=data:image/png,iVBORw0KGgoAAAANSUhEUgAAAQQAAAEsCAMAAAASKT1jAAAC/VBMVEVHcEwR3n8V6IQV6IQV6IQV6IQV6IQV6YQV6IQV6IQV6IQV6IQV6IQV6IQV6IQV6IQV6IQV6IQV6IQV6IQV6IQV6IQU6IQV6IQV6IQV6IQLyXYV6IQV6IQV6IQV6IQV6IQV6IQRq2cV6IQV6IQV6IQV6IQV6IQV6IQV6IQV6IQV6IQV6IQV6IQV6IQV6IQV6IQV6IQV6IQV6IQV6IQS4YEV6IQV6IQV6IQV6IQV6IQV6IQV6IQV6IQV6IQV6IQV6IQV6IQV6IQU6YQV6IQV6IQV6IQV6IQV6IQV6IQV6IQV6IQV6IQU6IQV6IQV6IQV6IQV6IQV2n4V54MU54MVaEgVt2wU6oQN2n4CwHIXHCUVLC0VfFEVyXYR338DxHQAsGoArWkXICgXHicVQDUVj1oV2n0S4oEGzXcAs2sArGgXHycVUz4Vp2YU5YIK1XwBu24ArWkVJCkVwHIBv3EUNDAV0XkV6IQV6IQEyHYVmF4Vr2kVOTMVhlUV6IQVSDkVnmEV6IQI0XkAt20VXEIVck0VYkUU54MVzXgGzHgXICgWICgXHycXHygArmkArWkXICgXICgXICgXICgArWkArGgXICgXICgXICgXICgXICgXICgXICgXICgXICgXICgXICgXICgMcEwXICgXICgXICgXICgXICgXICgXICgXHycXICgXHygXICgXICgXICgXICgXICgXICgXICgXICgXICgXICgXICgXICgXICgXICgXICgXICgXICgXICgXICgXICgXICgXICgXICgArWkArWkArWkArWkArWkArWkArWkArWkArWkArWkArWkArWkArWkArWkArWkArWkArWkArWkArWkArWkArWkArWkArmkArWkArWkArWkArWkArWkArWkArWkArWkArWkArWkArWkArGgArWkArWkArWkArWkArWkArWkArWkArWkArWkArWkArWkArWkDflIRNzIAoGMArWkArWkArWkArWkArWkArWkArWkArWkQPTQAm2EDnCkcAAAA/3RSTlMABkjHvDwCJ5Lq/+aEHRV13v7TZg8KVMX8+gM5q/bynS4BIo3hfRkSbNf9zl4MCE6/+LNABDKj9O2VY9JXuiya8FvLwjTcRXqwcYu4qEuC5Nlj///+////5P/////////q//////////////////////////3/4xv//////4j//zb//////+Wn/P7JVAky7fevPAMw7eqOJttrFPvDTvKlMgLmhx3UZRC9SgXuny3jfhrPXwy2QJYp33YX/Ko3ItdFWnEto/oZfOILXM39QLL2KJMVdN3+CFXGOasijBJs2E7A8x6D5g5k0ka5m/AnHUwPhEP//10apLOFld4vx7smScc5AAAKKUlEQVR4AeTXA4KbURgF0BcnX2zbtq263f9uaru3gzf3P7s46p6ZzBarza4MzeF0ibg9XmVcPn8gKG8FQ+GIMqZoLJ6Qj5JWs0kZTyqdycpXcvlCURlMqeyS71SqNWUk9UYzKD9otTtdZRS9/iApPzUcjSfKCOzT2Vx+abF0KH5ej1t+Jxjw+xS3yGrdkj9IWDZRxctk3iblL2QztpTiVNztD/KXXOWSYlSrVuTvBZuNumLTPZ5a8k8S535PMZmMR0P5Z/PZxU4U5uVCIDzJ9vmvQQG1NE82EGZEcms2kYUZcdAt2UCYAXonGwgzQOtkA2EGaJ1sIMwA7ZMNhBmgf7KBMAMIkm169HdhRmQz6RRZmH/Ekeza44rgGJINhBmRGGic7Mn4yVAATMl2OKEwMyXb9xQLM1Gy0TATJRsNM1OyS8+gMDMlGw0zUbLRMBMluzid5QTAlGw8zHonW4MwY8mORe8lzM+TAiBKNhpmpmSDYWZKdvR4SoiWkniydQ0zluypnSzMYLJpwoxrrVcRsjBrlmx7+kVWHohDflckCzOYbJow41qnG0527yUWZqJko2FmSrb3FRRmgmQDYdZTIh6LkoUZT7bWYQ5eK1on+w1z58DfSQyE4dq2bdu2bdu22zM+9f1zeo9dTCZNPsBd+/w2786zmUkhzKw/H0jrJdn8wownFXtOO8kuc4cw838YRPrqJNkQZv63F/+Ha0i2XsKMOgY9fwkaSTavMKOiJRxmESS7w1kTYcYBonpLa2qEZBOEmdNy0RHO+t8ThJm3qQCtDvyS3Zz/QsKMixL0jCRlwmx8ZQYu2OBdVV6e/xTmQX1e1JgcY3QWlCmcwkxoPsQMIb9kQ5gJ/yXPrGd+Xm6OQslWIsxD3Zl8c8UEie1JgTBrKfTJSYmKJHu4JWqE/alzj6HfNcC0RqOLIpzGxkcmfIBBt3GVsNCQYGYKk1NO0zOzcxMTfBQgzBp2h436+MwvLC45La+srK6ty34YIMwN9DPQtopKLgQbm1vb2w4Iyzsry7t7GxwYiksgrrSO0VbplbT4dfcPDo+2t48EBAeG6eOxE0SDRh23MLuhYPlhcCoQHH2HIDCczZ7LpXAxcMk/dk0Jg6vFrwgAYVlEw7XEaEhILJfcIBDjLkmyEQaCACCItbNyvHuzDww0Ye53ZmiUqXONkhMGo9/C4G8IYk/MjJ34AAOhCgtju8XSR8KaXPi2E36HAAy3d+Ro8L5n7CxtEJJN3AlX2Al/QxBrZefhcZ6CobLvyUO/i3qAYP/VayD4CwKi4c04okHRQTi3ZCMMvr0W/w8B0fDWXiUd3N6tZO7gMv3CHoN5hIEBBPE03KKSJny3Y5y4SUygvRaNIYhK+mHPYjQUd6m8Os+53y2aGAYGEL5V0u+sSHZUSzNzGPwt2dnB1mtkkxCAwYJkp3W+wHxiyr23BWEGAmMIWJBswvke6/J46qukhIEJCGYlO7qXIMxUyY6AZBvXyDYgGEg2b2M9vZcCYYCdYAuCsWT7Dvhr8JcBnhNm7ARbEIwlO6GCIMwSJbur2Pi1SIMAyaZ3hKkbTUMY0CGgknZI9gi9N1DhkCKEmQ7hb8nGAZau9ztBmKVCgGTrevMVjpURBhIh4HX5TbKZhZnekY8aWTIESDbaG/Rb/gPvUSPLhwDJ/kARZn7J7vuIMJAMARQ+ff7Crl3YyBXFUBg+rbzSLFZE28YdepAMM88OM3NjAfdwR45sl/AJfx2nMxB82Rwb+ENghh9hFCdyEX7++vryjcCXLxTlIuQ+hECuVK6oRyCq1uoZ9QhEjWarrR6BqNPtGQK5/mCoHoGoOvoeq0cgmkxngXoEovliaQjkVuuNegSicLsbq0cgmuwPhkDueDqrRyC6cGQrRyAKr7dEOwJH9t0QyD3KQ/UIHNlj9QjEka0egSPbEDiy1SOQq26fY50IAiJbGAJHtiHQJfXaqEcgCqPdWDzC3PlmyO+L0hFm+4lvBVd6V2QjYLzbhr4ZqrV0RjQCsFmvnF8Ejuy2aARguZiT78t377IREMymDd8KHNmSEYDx96jqm4HnKskIwHDQd74ZGtNWIBoB6HU75Pvmi55sBLRvzYZnBJ6rRCMAmXqt6psh5MgWjABU3iXnF4HnqkA0AlAs5Mn38VwlGQFJHIVE/iNbNAKQeaUu/iM7TkQjAOfT0TMC/4TKRgAO8iPbPwLGz09Edj0RjPCpyO5XhCMAPe+R/TiLR0DQmjbUI4AjWz0CMCz3nXoE4N7NGwLat2tDPQKQSdeq6hHAka0egSPbEDDmyFaOAGw4spUjAOfF0RAQ8JKtHIEju6oeAdgMVk49As9VhoCg1WyoRwDG9VFVOwJH9sOpRwDuhbwhILldQ/UIHNkX9QhA5XR06hF4rjIEjHdRqB4BPFepR+CfUENAMJtW1SMAh7whoNgxBEMwBEMwBEMwBEMwBEMwBEMwBEMwhP8KIWsIwZ/y7gFX7jiK4vjtNl44e5j9FHGjWyyiVljbtt2xPfNsTm0jOnH1u/PuP+cs4RN+o/P4SYIdIZlKq3IjZLK5vHIjxAvFkio3QrmyRZUboVqrN5Qbodlq51WpEfo6/SVVboSBwWWq3AhDwyMN5UZojo4lVKkRDm5+Mq7KjTAxOaXKjTA9M5tXboT43HxClRIBwbzQVeVGQDDTIiCYaREQzLwITxHMrAgIZkoEBDMtAoKZFgHBTIuAYOZFQDDTIiCYuRGeIZgJERDMxku7RUAwGy8x1nKKgGA2XmNkeEhcIiCYrbdscEDEJQKC2Xil/k6fuERAMBsv3241RTwiIJiN16jXqiIuERDMxttSeSriEAHBnFDjlYqFuPhFOGgWzFg+l82I+EOwD2YsnUqK+EOwD2asu/A4Jn4Rms+tghlLzM/FRdwixMyCGcvPzrwQ8YlgG8zY1MsJEa8IvQnm8SebD4pfhN4E82hTxCvCyvuvvAezPcKKtVMN78Fsj/D6Te+DmQ0BwUyLgGDmQ0Awl0W4ERDMdAgI5rcIZjIEBPM7EW4EBDMfAoJ5iQg1AoKZFwHBTIsw/h7BTIqAYKZFQDDzIiCYaREQzHwICOaMCDUCgpkXAcFMi1D6gGAmRUAw8yIgmGkREMy0CAhmWgQEMy/C1EcEMykCgpkRAcHseZfPnzNGcBPMIX6ogRDRYA7xQw2EiAZziB9qIEQ0mEP8UAPBQTDb7ODd/fvCImz55CyYA/5QAyFqwRzwhxoIUQvmED/UQDAIZlfbgR/qP0fwH8zBfqiBYBDM7nbr5o0/R/AYzPbveUBwHswB3vOubP1zBG/BbP+eBwS3wWz/ngcE/8Ec5j1v358i2Aezq8gGgn0we4nsY4hsIEQ3mANc1AMBa3y2D2Z3kQ0EBDPDNu1FZAMBwUyyXbioBwKCmWS4qAeCfTA7jOw7W4HwK5i/xIRvmzb+iuxfCPbB7Duy1/9CaNgHs/PIfv0GwUy6Uye/fussdjD/AGN2CeiTAlmqAAAAAElFTkSuQmCC;" parent="1" vertex="1">
          <mxGeometry x="1061.97" y="246" width="45.07" height="52" as="geometry" />
        </mxCell>
        <mxCell id="y5-CeOcDPug-oQbGVqkk-32" value="" style="image;aspect=fixed;html=1;points=[];align=center;fontSize=12;image=img/lib/azure2/other/Dashboard_Hub.svg;" parent="1" vertex="1">
          <mxGeometry x="999.5" y="548" width="170" height="130" as="geometry" />
        </mxCell>
        <mxCell id="y5-CeOcDPug-oQbGVqkk-34" value="&lt;font&gt;&lt;b&gt;NEW RELIC&lt;/b&gt;&lt;/font&gt;&lt;div&gt;&lt;font&gt;&lt;b&gt;DASHBOARD&lt;/b&gt;&lt;/font&gt;&lt;/div&gt;" style="text;html=1;align=center;verticalAlign=middle;resizable=0;points=[];autosize=1;strokeColor=none;fillColor=none;fontFamily=Helvetica;fontSize=17;" parent="1" vertex="1">
          <mxGeometry x="1019" y="678" width="126" height="53" as="geometry" />
        </mxCell>
        <mxCell id="y5-CeOcDPug-oQbGVqkk-35" value="" style="shape=doubleArrow;whiteSpace=wrap;html=1;" parent="1" vertex="1">
          <mxGeometry x="408" y="461" width="100" height="35" as="geometry" />
        </mxCell>
        <mxCell id="y5-CeOcDPug-oQbGVqkk-36" value="&lt;b&gt;&lt;font style=&quot;font-size: 15px;&quot;&gt;BIDIRECTIONAL COMMUNICATION&lt;/font&gt;&lt;/b&gt;" style="text;html=1;align=center;verticalAlign=middle;resizable=0;points=[];autosize=1;strokeColor=none;fillColor=none;rotation=-90;" parent="1" vertex="1">
          <mxGeometry x="325" y="322.25" width="266" height="30" as="geometry" />
        </mxCell>
        <mxCell id="y5-CeOcDPug-oQbGVqkk-37" style="edgeStyle=orthogonalEdgeStyle;rounded=0;orthogonalLoop=1;jettySize=auto;html=1;entryX=0;entryY=0.5;entryDx=0;entryDy=0;entryPerimeter=0;" parent="1" source="y5-CeOcDPug-oQbGVqkk-28" target="y5-CeOcDPug-oQbGVqkk-30" edge="1">
          <mxGeometry relative="1" as="geometry" />
        </mxCell>
        <mxCell id="y5-CeOcDPug-oQbGVqkk-38" value="&lt;span style=&quot;font-size: 15px;&quot;&gt;&lt;b&gt;AGENT FORWARDING DATA TO&lt;/b&gt;&lt;/span&gt;&lt;div&gt;&lt;span style=&quot;font-size: 15px;&quot;&gt;&lt;b&gt;NEW RELIC DATABASE&lt;/b&gt;&lt;/span&gt;&lt;/div&gt;" style="text;html=1;align=right;verticalAlign=middle;resizable=0;points=[];autosize=1;rotation=-90;glass=0;" parent="1" vertex="1">
          <mxGeometry x="756.5" y="393" width="243" height="48" as="geometry" />
        </mxCell>
        <mxCell id="y5-CeOcDPug-oQbGVqkk-53" value="AGENT CONFIGURED&lt;br&gt;FOR PULLING DATA&lt;div&gt;FROM SCOM DB&lt;/div&gt;" style="rounded=0;whiteSpace=wrap;html=1;align=left;fontStyle=1;spacing=10;opacity=0;fontSize=10;" parent="1" vertex="1">
          <mxGeometry x="677" y="529" width="147" height="29" as="geometry" />
        </mxCell>
        <mxCell id="y5-CeOcDPug-oQbGVqkk-25" value="" style="shape=image;verticalLabelPosition=bottom;labelBackgroundColor=default;verticalAlign=top;aspect=fixed;imageAspect=0;image=data:image/png,iVBORw0KGgoAAAANSUhEUgAAAQQAAAEsCAMAAAASKT1jAAAC/VBMVEVHcEwR3n8V6IQV6IQV6IQV6IQV6IQV6YQV6IQV6IQV6IQV6IQV6IQV6IQV6IQV6IQV6IQV6IQV6IQV6IQV6IQV6IQU6IQV6IQV6IQV6IQLyXYV6IQV6IQV6IQV6IQV6IQV6IQRq2cV6IQV6IQV6IQV6IQV6IQV6IQV6IQV6IQV6IQV6IQV6IQV6IQV6IQV6IQV6IQV6IQV6IQV6IQS4YEV6IQV6IQV6IQV6IQV6IQV6IQV6IQV6IQV6IQV6IQV6IQV6IQV6IQU6YQV6IQV6IQV6IQV6IQV6IQV6IQV6IQV6IQV6IQU6IQV6IQV6IQV6IQV6IQV2n4V54MU54MVaEgVt2wU6oQN2n4CwHIXHCUVLC0VfFEVyXYR338DxHQAsGoArWkXICgXHicVQDUVj1oV2n0S4oEGzXcAs2sArGgXHycVUz4Vp2YU5YIK1XwBu24ArWkVJCkVwHIBv3EUNDAV0XkV6IQV6IQEyHYVmF4Vr2kVOTMVhlUV6IQVSDkVnmEV6IQI0XkAt20VXEIVck0VYkUU54MVzXgGzHgXICgWICgXHycXHygArmkArWkXICgXICgXICgXICgArWkArGgXICgXICgXICgXICgXICgXICgXICgXICgXICgXICgXICgXICgMcEwXICgXICgXICgXICgXICgXICgXICgXHycXICgXHygXICgXICgXICgXICgXICgXICgXICgXICgXICgXICgXICgXICgXICgXICgXICgXICgXICgXICgXICgXICgXICgXICgXICgArWkArWkArWkArWkArWkArWkArWkArWkArWkArWkArWkArWkArWkArWkArWkArWkArWkArWkArWkArWkArWkArWkArmkArWkArWkArWkArWkArWkArWkArWkArWkArWkArWkArWkArGgArWkArWkArWkArWkArWkArWkArWkArWkArWkArWkArWkArWkDflIRNzIAoGMArWkArWkArWkArWkArWkArWkArWkArWkQPTQAm2EDnCkcAAAA/3RSTlMABkjHvDwCJ5Lq/+aEHRV13v7TZg8KVMX8+gM5q/bynS4BIo3hfRkSbNf9zl4MCE6/+LNABDKj9O2VY9JXuiya8FvLwjTcRXqwcYu4qEuC5Nlj///+////5P/////////q//////////////////////////3/4xv//////4j//zb//////+Wn/P7JVAky7fevPAMw7eqOJttrFPvDTvKlMgLmhx3UZRC9SgXuny3jfhrPXwy2QJYp33YX/Ko3ItdFWnEto/oZfOILXM39QLL2KJMVdN3+CFXGOasijBJs2E7A8x6D5g5k0ka5m/AnHUwPhEP//10apLOFld4vx7smScc5AAAKKUlEQVR4AeTXA4KbURgF0BcnX2zbtq263f9uaru3gzf3P7s46p6ZzBarza4MzeF0ibg9XmVcPn8gKG8FQ+GIMqZoLJ6Qj5JWs0kZTyqdycpXcvlCURlMqeyS71SqNWUk9UYzKD9otTtdZRS9/iApPzUcjSfKCOzT2Vx+abF0KH5ej1t+Jxjw+xS3yGrdkj9IWDZRxctk3iblL2QztpTiVNztD/KXXOWSYlSrVuTvBZuNumLTPZ5a8k8S535PMZmMR0P5Z/PZxU4U5uVCIDzJ9vmvQQG1NE82EGZEcms2kYUZcdAt2UCYAXonGwgzQOtkA2EGaJ1sIMwA7ZMNhBmgf7KBMAMIkm169HdhRmQz6RRZmH/Ekeza44rgGJINhBmRGGic7Mn4yVAATMl2OKEwMyXb9xQLM1Gy0TATJRsNM1OyS8+gMDMlGw0zUbLRMBMluzid5QTAlGw8zHonW4MwY8mORe8lzM+TAiBKNhpmpmSDYWZKdvR4SoiWkniydQ0zluypnSzMYLJpwoxrrVcRsjBrlmx7+kVWHohDflckCzOYbJow41qnG0527yUWZqJko2FmSrb3FRRmgmQDYdZTIh6LkoUZT7bWYQ5eK1on+w1z58DfSQyE4dq2bdu2bdu22zM+9f1zeo9dTCZNPsBd+/w2786zmUkhzKw/H0jrJdn8wownFXtOO8kuc4cw838YRPrqJNkQZv63F/+Ha0i2XsKMOgY9fwkaSTavMKOiJRxmESS7w1kTYcYBonpLa2qEZBOEmdNy0RHO+t8ThJm3qQCtDvyS3Zz/QsKMixL0jCRlwmx8ZQYu2OBdVV6e/xTmQX1e1JgcY3QWlCmcwkxoPsQMIb9kQ5gJ/yXPrGd+Xm6OQslWIsxD3Zl8c8UEie1JgTBrKfTJSYmKJHu4JWqE/alzj6HfNcC0RqOLIpzGxkcmfIBBt3GVsNCQYGYKk1NO0zOzcxMTfBQgzBp2h436+MwvLC45La+srK6ty34YIMwN9DPQtopKLgQbm1vb2w4Iyzsry7t7GxwYiksgrrSO0VbplbT4dfcPDo+2t48EBAeG6eOxE0SDRh23MLuhYPlhcCoQHH2HIDCczZ7LpXAxcMk/dk0Jg6vFrwgAYVlEw7XEaEhILJfcIBDjLkmyEQaCACCItbNyvHuzDww0Ye53ZmiUqXONkhMGo9/C4G8IYk/MjJ34AAOhCgtju8XSR8KaXPi2E36HAAy3d+Ro8L5n7CxtEJJN3AlX2Al/QxBrZefhcZ6CobLvyUO/i3qAYP/VayD4CwKi4c04okHRQTi3ZCMMvr0W/w8B0fDWXiUd3N6tZO7gMv3CHoN5hIEBBPE03KKSJny3Y5y4SUygvRaNIYhK+mHPYjQUd6m8Os+53y2aGAYGEL5V0u+sSHZUSzNzGPwt2dnB1mtkkxCAwYJkp3W+wHxiyr23BWEGAmMIWJBswvke6/J46qukhIEJCGYlO7qXIMxUyY6AZBvXyDYgGEg2b2M9vZcCYYCdYAuCsWT7Dvhr8JcBnhNm7ARbEIwlO6GCIMwSJbur2Pi1SIMAyaZ3hKkbTUMY0CGgknZI9gi9N1DhkCKEmQ7hb8nGAZau9ztBmKVCgGTrevMVjpURBhIh4HX5TbKZhZnekY8aWTIESDbaG/Rb/gPvUSPLhwDJ/kARZn7J7vuIMJAMARQ+ff7Crl3YyBXFUBg+rbzSLFZE28YdepAMM88OM3NjAfdwR45sl/AJfx2nMxB82Rwb+ENghh9hFCdyEX7++vryjcCXLxTlIuQ+hECuVK6oRyCq1uoZ9QhEjWarrR6BqNPtGQK5/mCoHoGoOvoeq0cgmkxngXoEovliaQjkVuuNegSicLsbq0cgmuwPhkDueDqrRyC6cGQrRyAKr7dEOwJH9t0QyD3KQ/UIHNlj9QjEka0egSPbEDiy1SOQq26fY50IAiJbGAJHtiHQJfXaqEcgCqPdWDzC3PlmyO+L0hFm+4lvBVd6V2QjYLzbhr4ZqrV0RjQCsFmvnF8Ejuy2aARguZiT78t377IREMymDd8KHNmSEYDx96jqm4HnKskIwHDQd74ZGtNWIBoB6HU75Pvmi55sBLRvzYZnBJ6rRCMAmXqt6psh5MgWjABU3iXnF4HnqkA0AlAs5Mn38VwlGQFJHIVE/iNbNAKQeaUu/iM7TkQjAOfT0TMC/4TKRgAO8iPbPwLGz09Edj0RjPCpyO5XhCMAPe+R/TiLR0DQmjbUI4AjWz0CMCz3nXoE4N7NGwLat2tDPQKQSdeq6hHAka0egSPbEDDmyFaOAGw4spUjAOfF0RAQ8JKtHIEju6oeAdgMVk49As9VhoCg1WyoRwDG9VFVOwJH9sOpRwDuhbwhILldQ/UIHNkX9QhA5XR06hF4rjIEjHdRqB4BPFepR+CfUENAMJtW1SMAh7whoNgxBEMwBEMwBEMwBEMwBEMwBEMwBEMwhP8KIWsIwZ/y7gFX7jiK4vjtNl44e5j9FHGjWyyiVljbtt2xPfNsTm0jOnH1u/PuP+cs4RN+o/P4SYIdIZlKq3IjZLK5vHIjxAvFkio3QrmyRZUboVqrN5Qbodlq51WpEfo6/SVVboSBwWWq3AhDwyMN5UZojo4lVKkRDm5+Mq7KjTAxOaXKjTA9M5tXboT43HxClRIBwbzQVeVGQDDTIiCYaREQzLwITxHMrAgIZkoEBDMtAoKZFgHBTIuAYOZFQDDTIiCYuRGeIZgJERDMxku7RUAwGy8x1nKKgGA2XmNkeEhcIiCYrbdscEDEJQKC2Xil/k6fuERAMBsv3241RTwiIJiN16jXqiIuERDMxttSeSriEAHBnFDjlYqFuPhFOGgWzFg+l82I+EOwD2YsnUqK+EOwD2asu/A4Jn4Rms+tghlLzM/FRdwixMyCGcvPzrwQ8YlgG8zY1MsJEa8IvQnm8SebD4pfhN4E82hTxCvCyvuvvAezPcKKtVMN78Fsj/D6Te+DmQ0BwUyLgGDmQ0Awl0W4ERDMdAgI5rcIZjIEBPM7EW4EBDMfAoJ5iQg1AoKZFwHBTIsw/h7BTIqAYKZFQDDzIiCYaREQzHwICOaMCDUCgpkXAcFMi1D6gGAmRUAw8yIgmGkREMy0CAhmWgQEMy/C1EcEMykCgpkRAcHseZfPnzNGcBPMIX6ogRDRYA7xQw2EiAZziB9qIEQ0mEP8UAPBQTDb7ODd/fvCImz55CyYA/5QAyFqwRzwhxoIUQvmED/UQDAIZlfbgR/qP0fwH8zBfqiBYBDM7nbr5o0/R/AYzPbveUBwHswB3vOubP1zBG/BbP+eBwS3wWz/ngcE/8Ec5j1v358i2Aezq8gGgn0we4nsY4hsIEQ3mANc1AMBa3y2D2Z3kQ0EBDPDNu1FZAMBwUyyXbioBwKCmWS4qAeCfTA7jOw7W4HwK5i/xIRvmzb+iuxfCPbB7Duy1/9CaNgHs/PIfv0GwUy6Uye/fussdjD/AGN2CeiTAlmqAAAAAElFTkSuQmCC;" parent="1" vertex="1">
          <mxGeometry x="561.35" y="260" width="41.47" height="47.85" as="geometry" />
        </mxCell>
        <mxCell id="y5-CeOcDPug-oQbGVqkk-60" value="&lt;font style=&quot;font-size: 15px;&quot;&gt;NEW RELIC&lt;/font&gt;&lt;div&gt;&lt;font style=&quot;font-size: 15px;&quot;&gt;MSSQL&amp;nbsp;&lt;/font&gt;&lt;span style=&quot;font-size: 15px; background-color: initial;&quot;&gt;AGENT&lt;/span&gt;&lt;/div&gt;" style="rounded=0;whiteSpace=wrap;html=1;align=left;fontStyle=1;dashed=1;spacing=10;" parent="1" vertex="1">
          <mxGeometry x="609" y="445" width="154" height="61" as="geometry" />
        </mxCell>
        <mxCell id="y5-CeOcDPug-oQbGVqkk-61" value="" style="shape=image;verticalLabelPosition=bottom;labelBackgroundColor=default;verticalAlign=top;aspect=fixed;imageAspect=0;image=data:image/png,iVBORw0KGgoAAAANSUhEUgAAAQQAAAEsCAMAAAASKT1jAAAC/VBMVEVHcEwR3n8V6IQV6IQV6IQV6IQV6IQV6YQV6IQV6IQV6IQV6IQV6IQV6IQV6IQV6IQV6IQV6IQV6IQV6IQV6IQV6IQU6IQV6IQV6IQV6IQLyXYV6IQV6IQV6IQV6IQV6IQV6IQRq2cV6IQV6IQV6IQV6IQV6IQV6IQV6IQV6IQV6IQV6IQV6IQV6IQV6IQV6IQV6IQV6IQV6IQV6IQS4YEV6IQV6IQV6IQV6IQV6IQV6IQV6IQV6IQV6IQV6IQV6IQV6IQV6IQU6YQV6IQV6IQV6IQV6IQV6IQV6IQV6IQV6IQV6IQU6IQV6IQV6IQV6IQV6IQV2n4V54MU54MVaEgVt2wU6oQN2n4CwHIXHCUVLC0VfFEVyXYR338DxHQAsGoArWkXICgXHicVQDUVj1oV2n0S4oEGzXcAs2sArGgXHycVUz4Vp2YU5YIK1XwBu24ArWkVJCkVwHIBv3EUNDAV0XkV6IQV6IQEyHYVmF4Vr2kVOTMVhlUV6IQVSDkVnmEV6IQI0XkAt20VXEIVck0VYkUU54MVzXgGzHgXICgWICgXHycXHygArmkArWkXICgXICgXICgXICgArWkArGgXICgXICgXICgXICgXICgXICgXICgXICgXICgXICgXICgXICgMcEwXICgXICgXICgXICgXICgXICgXICgXHycXICgXHygXICgXICgXICgXICgXICgXICgXICgXICgXICgXICgXICgXICgXICgXICgXICgXICgXICgXICgXICgXICgXICgXICgXICgArWkArWkArWkArWkArWkArWkArWkArWkArWkArWkArWkArWkArWkArWkArWkArWkArWkArWkArWkArWkArWkArWkArmkArWkArWkArWkArWkArWkArWkArWkArWkArWkArWkArWkArGgArWkArWkArWkArWkArWkArWkArWkArWkArWkArWkArWkArWkDflIRNzIAoGMArWkArWkArWkArWkArWkArWkArWkArWkQPTQAm2EDnCkcAAAA/3RSTlMABkjHvDwCJ5Lq/+aEHRV13v7TZg8KVMX8+gM5q/bynS4BIo3hfRkSbNf9zl4MCE6/+LNABDKj9O2VY9JXuiya8FvLwjTcRXqwcYu4qEuC5Nlj///+////5P/////////q//////////////////////////3/4xv//////4j//zb//////+Wn/P7JVAky7fevPAMw7eqOJttrFPvDTvKlMgLmhx3UZRC9SgXuny3jfhrPXwy2QJYp33YX/Ko3ItdFWnEto/oZfOILXM39QLL2KJMVdN3+CFXGOasijBJs2E7A8x6D5g5k0ka5m/AnHUwPhEP//10apLOFld4vx7smScc5AAAKKUlEQVR4AeTXA4KbURgF0BcnX2zbtq263f9uaru3gzf3P7s46p6ZzBarza4MzeF0ibg9XmVcPn8gKG8FQ+GIMqZoLJ6Qj5JWs0kZTyqdycpXcvlCURlMqeyS71SqNWUk9UYzKD9otTtdZRS9/iApPzUcjSfKCOzT2Vx+abF0KH5ej1t+Jxjw+xS3yGrdkj9IWDZRxctk3iblL2QztpTiVNztD/KXXOWSYlSrVuTvBZuNumLTPZ5a8k8S535PMZmMR0P5Z/PZxU4U5uVCIDzJ9vmvQQG1NE82EGZEcms2kYUZcdAt2UCYAXonGwgzQOtkA2EGaJ1sIMwA7ZMNhBmgf7KBMAMIkm169HdhRmQz6RRZmH/Ekeza44rgGJINhBmRGGic7Mn4yVAATMl2OKEwMyXb9xQLM1Gy0TATJRsNM1OyS8+gMDMlGw0zUbLRMBMluzid5QTAlGw8zHonW4MwY8mORe8lzM+TAiBKNhpmpmSDYWZKdvR4SoiWkniydQ0zluypnSzMYLJpwoxrrVcRsjBrlmx7+kVWHohDflckCzOYbJow41qnG0527yUWZqJko2FmSrb3FRRmgmQDYdZTIh6LkoUZT7bWYQ5eK1on+w1z58DfSQyE4dq2bdu2bdu22zM+9f1zeo9dTCZNPsBd+/w2786zmUkhzKw/H0jrJdn8wownFXtOO8kuc4cw838YRPrqJNkQZv63F/+Ha0i2XsKMOgY9fwkaSTavMKOiJRxmESS7w1kTYcYBonpLa2qEZBOEmdNy0RHO+t8ThJm3qQCtDvyS3Zz/QsKMixL0jCRlwmx8ZQYu2OBdVV6e/xTmQX1e1JgcY3QWlCmcwkxoPsQMIb9kQ5gJ/yXPrGd+Xm6OQslWIsxD3Zl8c8UEie1JgTBrKfTJSYmKJHu4JWqE/alzj6HfNcC0RqOLIpzGxkcmfIBBt3GVsNCQYGYKk1NO0zOzcxMTfBQgzBp2h436+MwvLC45La+srK6ty34YIMwN9DPQtopKLgQbm1vb2w4Iyzsry7t7GxwYiksgrrSO0VbplbT4dfcPDo+2t48EBAeG6eOxE0SDRh23MLuhYPlhcCoQHH2HIDCczZ7LpXAxcMk/dk0Jg6vFrwgAYVlEw7XEaEhILJfcIBDjLkmyEQaCACCItbNyvHuzDww0Ye53ZmiUqXONkhMGo9/C4G8IYk/MjJ34AAOhCgtju8XSR8KaXPi2E36HAAy3d+Ro8L5n7CxtEJJN3AlX2Al/QxBrZefhcZ6CobLvyUO/i3qAYP/VayD4CwKi4c04okHRQTi3ZCMMvr0W/w8B0fDWXiUd3N6tZO7gMv3CHoN5hIEBBPE03KKSJny3Y5y4SUygvRaNIYhK+mHPYjQUd6m8Os+53y2aGAYGEL5V0u+sSHZUSzNzGPwt2dnB1mtkkxCAwYJkp3W+wHxiyr23BWEGAmMIWJBswvke6/J46qukhIEJCGYlO7qXIMxUyY6AZBvXyDYgGEg2b2M9vZcCYYCdYAuCsWT7Dvhr8JcBnhNm7ARbEIwlO6GCIMwSJbur2Pi1SIMAyaZ3hKkbTUMY0CGgknZI9gi9N1DhkCKEmQ7hb8nGAZau9ztBmKVCgGTrevMVjpURBhIh4HX5TbKZhZnekY8aWTIESDbaG/Rb/gPvUSPLhwDJ/kARZn7J7vuIMJAMARQ+ff7Crl3YyBXFUBg+rbzSLFZE28YdepAMM88OM3NjAfdwR45sl/AJfx2nMxB82Rwb+ENghh9hFCdyEX7++vryjcCXLxTlIuQ+hECuVK6oRyCq1uoZ9QhEjWarrR6BqNPtGQK5/mCoHoGoOvoeq0cgmkxngXoEovliaQjkVuuNegSicLsbq0cgmuwPhkDueDqrRyC6cGQrRyAKr7dEOwJH9t0QyD3KQ/UIHNlj9QjEka0egSPbEDiy1SOQq26fY50IAiJbGAJHtiHQJfXaqEcgCqPdWDzC3PlmyO+L0hFm+4lvBVd6V2QjYLzbhr4ZqrV0RjQCsFmvnF8Ejuy2aARguZiT78t377IREMymDd8KHNmSEYDx96jqm4HnKskIwHDQd74ZGtNWIBoB6HU75Pvmi55sBLRvzYZnBJ6rRCMAmXqt6psh5MgWjABU3iXnF4HnqkA0AlAs5Mn38VwlGQFJHIVE/iNbNAKQeaUu/iM7TkQjAOfT0TMC/4TKRgAO8iPbPwLGz09Edj0RjPCpyO5XhCMAPe+R/TiLR0DQmjbUI4AjWz0CMCz3nXoE4N7NGwLat2tDPQKQSdeq6hHAka0egSPbEDDmyFaOAGw4spUjAOfF0RAQ8JKtHIEju6oeAdgMVk49As9VhoCg1WyoRwDG9VFVOwJH9sOpRwDuhbwhILldQ/UIHNkX9QhA5XR06hF4rjIEjHdRqB4BPFepR+CfUENAMJtW1SMAh7whoNgxBEMwBEMwBEMwBEMwBEMwBEMwBEMwhP8KIWsIwZ/y7gFX7jiK4vjtNl44e5j9FHGjWyyiVljbtt2xPfNsTm0jOnH1u/PuP+cs4RN+o/P4SYIdIZlKq3IjZLK5vHIjxAvFkio3QrmyRZUboVqrN5Qbodlq51WpEfo6/SVVboSBwWWq3AhDwyMN5UZojo4lVKkRDm5+Mq7KjTAxOaXKjTA9M5tXboT43HxClRIBwbzQVeVGQDDTIiCYaREQzLwITxHMrAgIZkoEBDMtAoKZFgHBTIuAYOZFQDDTIiCYuRGeIZgJERDMxku7RUAwGy8x1nKKgGA2XmNkeEhcIiCYrbdscEDEJQKC2Xil/k6fuERAMBsv3241RTwiIJiN16jXqiIuERDMxttSeSriEAHBnFDjlYqFuPhFOGgWzFg+l82I+EOwD2YsnUqK+EOwD2asu/A4Jn4Rms+tghlLzM/FRdwixMyCGcvPzrwQ8YlgG8zY1MsJEa8IvQnm8SebD4pfhN4E82hTxCvCyvuvvAezPcKKtVMN78Fsj/D6Te+DmQ0BwUyLgGDmQ0Awl0W4ERDMdAgI5rcIZjIEBPM7EW4EBDMfAoJ5iQg1AoKZFwHBTIsw/h7BTIqAYKZFQDDzIiCYaREQzHwICOaMCDUCgpkXAcFMi1D6gGAmRUAw8yIgmGkREMy0CAhmWgQEMy/C1EcEMykCgpkRAcHseZfPnzNGcBPMIX6ogRDRYA7xQw2EiAZziB9qIEQ0mEP8UAPBQTDb7ODd/fvCImz55CyYA/5QAyFqwRzwhxoIUQvmED/UQDAIZlfbgR/qP0fwH8zBfqiBYBDM7nbr5o0/R/AYzPbveUBwHswB3vOubP1zBG/BbP+eBwS3wWz/ngcE/8Ec5j1v358i2Aezq8gGgn0we4nsY4hsIEQ3mANc1AMBa3y2D2Z3kQ0EBDPDNu1FZAMBwUyyXbioBwKCmWS4qAeCfTA7jOw7W4HwK5i/xIRvmzb+iuxfCPbB7Duy1/9CaNgHs/PIfv0GwUy6Uye/fussdjD/AGN2CeiTAlmqAAAAAElFTkSuQmCC;" parent="1" vertex="1">
          <mxGeometry x="561.35" y="449" width="41.47" height="47.85" as="geometry" />
        </mxCell>
        <mxCell id="y5-CeOcDPug-oQbGVqkk-62" style="edgeStyle=orthogonalEdgeStyle;rounded=0;orthogonalLoop=1;jettySize=auto;html=1;entryX=0.5;entryY=0;entryDx=0;entryDy=0;entryPerimeter=0;" parent="1" source="y5-CeOcDPug-oQbGVqkk-60" target="y5-CeOcDPug-oQbGVqkk-22" edge="1">
          <mxGeometry relative="1" as="geometry">
            <Array as="points">
              <mxPoint x="678" y="528" />
              <mxPoint x="678" y="528" />
            </Array>
          </mxGeometry>
        </mxCell>
        <mxCell id="y5-CeOcDPug-oQbGVqkk-68" style="edgeStyle=orthogonalEdgeStyle;rounded=0;orthogonalLoop=1;jettySize=auto;html=1;strokeWidth=2;entryX=0;entryY=0.5;entryDx=0;entryDy=0;entryPerimeter=0;" parent="1" source="y5-CeOcDPug-oQbGVqkk-63" target="y5-CeOcDPug-oQbGVqkk-65" edge="1">
          <mxGeometry relative="1" as="geometry">
            <mxPoint x="704.5" y="1401" as="targetPoint" />
          </mxGeometry>
        </mxCell>
        <mxCell id="y5-CeOcDPug-oQbGVqkk-63" value="" style="shape=image;html=1;verticalAlign=top;verticalLabelPosition=bottom;labelBackgroundColor=#ffffff;imageAspect=0;aspect=fixed;image=https://cdn0.iconfinder.com/data/icons/logos-microsoft-office-365/128/Microsoft_Office-07-128.png" parent="1" vertex="1">
          <mxGeometry x="222" y="1328" width="146" height="146" as="geometry" />
        </mxCell>
        <mxCell id="y5-CeOcDPug-oQbGVqkk-64" value="&lt;font style=&quot;font-size: 16px;&quot;&gt;&lt;b&gt;EMAIL WITH&lt;br&gt;MPE TRANSACTIONS REPORT&lt;/b&gt;&lt;/font&gt;" style="text;html=1;align=center;verticalAlign=middle;resizable=0;points=[];autosize=1;strokeColor=none;fillColor=none;" parent="1" vertex="1">
          <mxGeometry x="178" y="1477" width="253" height="50" as="geometry" />
        </mxCell>
        <mxCell id="y5-CeOcDPug-oQbGVqkk-65" value="" style="image;aspect=fixed;html=1;points=[];align=center;fontSize=12;image=img/lib/azure2/compute/Virtual_Machine.svg;" parent="1" vertex="1">
          <mxGeometry x="620" y="1319.5" width="175.73" height="163" as="geometry" />
        </mxCell>
        <mxCell id="y5-CeOcDPug-oQbGVqkk-66" value="&lt;span style=&quot;font-size: 16px;&quot;&gt;&lt;b&gt;AZURE VM&lt;/b&gt;&lt;/span&gt;" style="text;html=1;align=center;verticalAlign=middle;resizable=0;points=[];autosize=1;strokeColor=none;fillColor=none;" parent="1" vertex="1">
          <mxGeometry x="655" y="1487" width="101" height="31" as="geometry" />
        </mxCell>
        <mxCell id="y5-CeOcDPug-oQbGVqkk-69" value="&lt;b&gt;&lt;font style=&quot;font-size: 14px;&quot;&gt;DATA BEING TRANSMITTED&lt;/font&gt;&lt;/b&gt;&lt;div&gt;&lt;b&gt;&lt;font style=&quot;font-size: 14px;&quot;&gt;TO AZURE VM&lt;/font&gt;&lt;/b&gt;&lt;/div&gt;" style="text;html=1;align=center;verticalAlign=middle;resizable=0;points=[];autosize=1;strokeColor=none;fillColor=none;" parent="1" vertex="1">
          <mxGeometry x="411" y="1352" width="203" height="46" as="geometry" />
        </mxCell>
        <mxCell id="y5-CeOcDPug-oQbGVqkk-70" value="&lt;div&gt;&lt;font style=&quot;font-size: 17px;&quot;&gt;&lt;b style=&quot;&quot;&gt;&lt;br&gt;&lt;/b&gt;&lt;/font&gt;&lt;/div&gt;&lt;div&gt;&lt;font style=&quot;font-size: 17px;&quot;&gt;&lt;b&gt;&lt;br&gt;&lt;/b&gt;&lt;/font&gt;&lt;/div&gt;&lt;div&gt;&lt;font style=&quot;font-size: 17px;&quot;&gt;&lt;b&gt;&lt;br&gt;&lt;/b&gt;&lt;/font&gt;&lt;/div&gt;&lt;div&gt;&lt;font style=&quot;font-size: 17px;&quot;&gt;&lt;b&gt;&lt;br&gt;&lt;/b&gt;&lt;/font&gt;&lt;/div&gt;&lt;div&gt;&lt;font style=&quot;font-size: 17px;&quot;&gt;&lt;b&gt;NEW RELIC&lt;/b&gt;&lt;/font&gt;&lt;/div&gt;&lt;div&gt;&lt;font style=&quot;font-size: 17px;&quot;&gt;&lt;b style=&quot;&quot;&gt;DATABASE&lt;/b&gt;&lt;/font&gt;&lt;/div&gt;" style="shape=cylinder3;whiteSpace=wrap;html=1;boundedLbl=1;backgroundOutline=1;size=15;fillColor=#d5e8d4;strokeColor=#82b366;" parent="1" vertex="1">
          <mxGeometry x="994" y="1296.5" width="194" height="209" as="geometry" />
        </mxCell>
        <mxCell id="y5-CeOcDPug-oQbGVqkk-71" value="" style="shape=image;verticalLabelPosition=bottom;labelBackgroundColor=default;verticalAlign=top;aspect=fixed;imageAspect=0;image=data:image/png,iVBORw0KGgoAAAANSUhEUgAAAQQAAAEsCAMAAAASKT1jAAAC/VBMVEVHcEwR3n8V6IQV6IQV6IQV6IQV6IQV6YQV6IQV6IQV6IQV6IQV6IQV6IQV6IQV6IQV6IQV6IQV6IQV6IQV6IQV6IQU6IQV6IQV6IQV6IQLyXYV6IQV6IQV6IQV6IQV6IQV6IQRq2cV6IQV6IQV6IQV6IQV6IQV6IQV6IQV6IQV6IQV6IQV6IQV6IQV6IQV6IQV6IQV6IQV6IQV6IQS4YEV6IQV6IQV6IQV6IQV6IQV6IQV6IQV6IQV6IQV6IQV6IQV6IQV6IQU6YQV6IQV6IQV6IQV6IQV6IQV6IQV6IQV6IQV6IQU6IQV6IQV6IQV6IQV6IQV2n4V54MU54MVaEgVt2wU6oQN2n4CwHIXHCUVLC0VfFEVyXYR338DxHQAsGoArWkXICgXHicVQDUVj1oV2n0S4oEGzXcAs2sArGgXHycVUz4Vp2YU5YIK1XwBu24ArWkVJCkVwHIBv3EUNDAV0XkV6IQV6IQEyHYVmF4Vr2kVOTMVhlUV6IQVSDkVnmEV6IQI0XkAt20VXEIVck0VYkUU54MVzXgGzHgXICgWICgXHycXHygArmkArWkXICgXICgXICgXICgArWkArGgXICgXICgXICgXICgXICgXICgXICgXICgXICgXICgXICgXICgMcEwXICgXICgXICgXICgXICgXICgXICgXHycXICgXHygXICgXICgXICgXICgXICgXICgXICgXICgXICgXICgXICgXICgXICgXICgXICgXICgXICgXICgXICgXICgXICgXICgXICgArWkArWkArWkArWkArWkArWkArWkArWkArWkArWkArWkArWkArWkArWkArWkArWkArWkArWkArWkArWkArWkArWkArmkArWkArWkArWkArWkArWkArWkArWkArWkArWkArWkArWkArGgArWkArWkArWkArWkArWkArWkArWkArWkArWkArWkArWkArWkDflIRNzIAoGMArWkArWkArWkArWkArWkArWkArWkArWkQPTQAm2EDnCkcAAAA/3RSTlMABkjHvDwCJ5Lq/+aEHRV13v7TZg8KVMX8+gM5q/bynS4BIo3hfRkSbNf9zl4MCE6/+LNABDKj9O2VY9JXuiya8FvLwjTcRXqwcYu4qEuC5Nlj///+////5P/////////q//////////////////////////3/4xv//////4j//zb//////+Wn/P7JVAky7fevPAMw7eqOJttrFPvDTvKlMgLmhx3UZRC9SgXuny3jfhrPXwy2QJYp33YX/Ko3ItdFWnEto/oZfOILXM39QLL2KJMVdN3+CFXGOasijBJs2E7A8x6D5g5k0ka5m/AnHUwPhEP//10apLOFld4vx7smScc5AAAKKUlEQVR4AeTXA4KbURgF0BcnX2zbtq263f9uaru3gzf3P7s46p6ZzBarza4MzeF0ibg9XmVcPn8gKG8FQ+GIMqZoLJ6Qj5JWs0kZTyqdycpXcvlCURlMqeyS71SqNWUk9UYzKD9otTtdZRS9/iApPzUcjSfKCOzT2Vx+abF0KH5ej1t+Jxjw+xS3yGrdkj9IWDZRxctk3iblL2QztpTiVNztD/KXXOWSYlSrVuTvBZuNumLTPZ5a8k8S535PMZmMR0P5Z/PZxU4U5uVCIDzJ9vmvQQG1NE82EGZEcms2kYUZcdAt2UCYAXonGwgzQOtkA2EGaJ1sIMwA7ZMNhBmgf7KBMAMIkm169HdhRmQz6RRZmH/Ekeza44rgGJINhBmRGGic7Mn4yVAATMl2OKEwMyXb9xQLM1Gy0TATJRsNM1OyS8+gMDMlGw0zUbLRMBMluzid5QTAlGw8zHonW4MwY8mORe8lzM+TAiBKNhpmpmSDYWZKdvR4SoiWkniydQ0zluypnSzMYLJpwoxrrVcRsjBrlmx7+kVWHohDflckCzOYbJow41qnG0527yUWZqJko2FmSrb3FRRmgmQDYdZTIh6LkoUZT7bWYQ5eK1on+w1z58DfSQyE4dq2bdu2bdu22zM+9f1zeo9dTCZNPsBd+/w2786zmUkhzKw/H0jrJdn8wownFXtOO8kuc4cw838YRPrqJNkQZv63F/+Ha0i2XsKMOgY9fwkaSTavMKOiJRxmESS7w1kTYcYBonpLa2qEZBOEmdNy0RHO+t8ThJm3qQCtDvyS3Zz/QsKMixL0jCRlwmx8ZQYu2OBdVV6e/xTmQX1e1JgcY3QWlCmcwkxoPsQMIb9kQ5gJ/yXPrGd+Xm6OQslWIsxD3Zl8c8UEie1JgTBrKfTJSYmKJHu4JWqE/alzj6HfNcC0RqOLIpzGxkcmfIBBt3GVsNCQYGYKk1NO0zOzcxMTfBQgzBp2h436+MwvLC45La+srK6ty34YIMwN9DPQtopKLgQbm1vb2w4Iyzsry7t7GxwYiksgrrSO0VbplbT4dfcPDo+2t48EBAeG6eOxE0SDRh23MLuhYPlhcCoQHH2HIDCczZ7LpXAxcMk/dk0Jg6vFrwgAYVlEw7XEaEhILJfcIBDjLkmyEQaCACCItbNyvHuzDww0Ye53ZmiUqXONkhMGo9/C4G8IYk/MjJ34AAOhCgtju8XSR8KaXPi2E36HAAy3d+Ro8L5n7CxtEJJN3AlX2Al/QxBrZefhcZ6CobLvyUO/i3qAYP/VayD4CwKi4c04okHRQTi3ZCMMvr0W/w8B0fDWXiUd3N6tZO7gMv3CHoN5hIEBBPE03KKSJny3Y5y4SUygvRaNIYhK+mHPYjQUd6m8Os+53y2aGAYGEL5V0u+sSHZUSzNzGPwt2dnB1mtkkxCAwYJkp3W+wHxiyr23BWEGAmMIWJBswvke6/J46qukhIEJCGYlO7qXIMxUyY6AZBvXyDYgGEg2b2M9vZcCYYCdYAuCsWT7Dvhr8JcBnhNm7ARbEIwlO6GCIMwSJbur2Pi1SIMAyaZ3hKkbTUMY0CGgknZI9gi9N1DhkCKEmQ7hb8nGAZau9ztBmKVCgGTrevMVjpURBhIh4HX5TbKZhZnekY8aWTIESDbaG/Rb/gPvUSPLhwDJ/kARZn7J7vuIMJAMARQ+ff7Crl3YyBXFUBg+rbzSLFZE28YdepAMM88OM3NjAfdwR45sl/AJfx2nMxB82Rwb+ENghh9hFCdyEX7++vryjcCXLxTlIuQ+hECuVK6oRyCq1uoZ9QhEjWarrR6BqNPtGQK5/mCoHoGoOvoeq0cgmkxngXoEovliaQjkVuuNegSicLsbq0cgmuwPhkDueDqrRyC6cGQrRyAKr7dEOwJH9t0QyD3KQ/UIHNlj9QjEka0egSPbEDiy1SOQq26fY50IAiJbGAJHtiHQJfXaqEcgCqPdWDzC3PlmyO+L0hFm+4lvBVd6V2QjYLzbhr4ZqrV0RjQCsFmvnF8Ejuy2aARguZiT78t377IREMymDd8KHNmSEYDx96jqm4HnKskIwHDQd74ZGtNWIBoB6HU75Pvmi55sBLRvzYZnBJ6rRCMAmXqt6psh5MgWjABU3iXnF4HnqkA0AlAs5Mn38VwlGQFJHIVE/iNbNAKQeaUu/iM7TkQjAOfT0TMC/4TKRgAO8iPbPwLGz09Edj0RjPCpyO5XhCMAPe+R/TiLR0DQmjbUI4AjWz0CMCz3nXoE4N7NGwLat2tDPQKQSdeq6hHAka0egSPbEDDmyFaOAGw4spUjAOfF0RAQ8JKtHIEju6oeAdgMVk49As9VhoCg1WyoRwDG9VFVOwJH9sOpRwDuhbwhILldQ/UIHNkX9QhA5XR06hF4rjIEjHdRqB4BPFepR+CfUENAMJtW1SMAh7whoNgxBEMwBEMwBEMwBEMwBEMwBEMwBEMwhP8KIWsIwZ/y7gFX7jiK4vjtNl44e5j9FHGjWyyiVljbtt2xPfNsTm0jOnH1u/PuP+cs4RN+o/P4SYIdIZlKq3IjZLK5vHIjxAvFkio3QrmyRZUboVqrN5Qbodlq51WpEfo6/SVVboSBwWWq3AhDwyMN5UZojo4lVKkRDm5+Mq7KjTAxOaXKjTA9M5tXboT43HxClRIBwbzQVeVGQDDTIiCYaREQzLwITxHMrAgIZkoEBDMtAoKZFgHBTIuAYOZFQDDTIiCYuRGeIZgJERDMxku7RUAwGy8x1nKKgGA2XmNkeEhcIiCYrbdscEDEJQKC2Xil/k6fuERAMBsv3241RTwiIJiN16jXqiIuERDMxttSeSriEAHBnFDjlYqFuPhFOGgWzFg+l82I+EOwD2YsnUqK+EOwD2asu/A4Jn4Rms+tghlLzM/FRdwixMyCGcvPzrwQ8YlgG8zY1MsJEa8IvQnm8SebD4pfhN4E82hTxCvCyvuvvAezPcKKtVMN78Fsj/D6Te+DmQ0BwUyLgGDmQ0Awl0W4ERDMdAgI5rcIZjIEBPM7EW4EBDMfAoJ5iQg1AoKZFwHBTIsw/h7BTIqAYKZFQDDzIiCYaREQzHwICOaMCDUCgpkXAcFMi1D6gGAmRUAw8yIgmGkREMy0CAhmWgQEMy/C1EcEMykCgpkRAcHseZfPnzNGcBPMIX6ogRDRYA7xQw2EiAZziB9qIEQ0mEP8UAPBQTDb7ODd/fvCImz55CyYA/5QAyFqwRzwhxoIUQvmED/UQDAIZlfbgR/qP0fwH8zBfqiBYBDM7nbr5o0/R/AYzPbveUBwHswB3vOubP1zBG/BbP+eBwS3wWz/ngcE/8Ec5j1v358i2Aezq8gGgn0we4nsY4hsIEQ3mANc1AMBa3y2D2Z3kQ0EBDPDNu1FZAMBwUyyXbioBwKCmWS4qAeCfTA7jOw7W4HwK5i/xIRvmzb+iuxfCPbB7Duy1/9CaNgHs/PIfv0GwUy6Uye/fussdjD/AGN2CeiTAlmqAAAAAElFTkSuQmCC;" parent="1" vertex="1">
          <mxGeometry x="1056.33" y="1353.5" width="69.33" height="80" as="geometry" />
        </mxCell>
        <mxCell id="y5-CeOcDPug-oQbGVqkk-73" style="edgeStyle=orthogonalEdgeStyle;rounded=0;orthogonalLoop=1;jettySize=auto;html=1;entryX=0;entryY=0.5;entryDx=0;entryDy=0;entryPerimeter=0;strokeWidth=2;" parent="1" source="y5-CeOcDPug-oQbGVqkk-65" target="y5-CeOcDPug-oQbGVqkk-70" edge="1">
          <mxGeometry relative="1" as="geometry" />
        </mxCell>
        <mxCell id="y5-CeOcDPug-oQbGVqkk-74" value="&lt;span style=&quot;font-size: 14px;&quot;&gt;&lt;b&gt;DATA TO BEING&lt;/b&gt;&lt;/span&gt;&lt;div&gt;&lt;span style=&quot;font-size: 14px;&quot;&gt;&lt;b&gt;SENT TO NEW RELIC DB&lt;/b&gt;&lt;/span&gt;&lt;/div&gt;" style="text;html=1;align=center;verticalAlign=middle;resizable=0;points=[];autosize=1;strokeColor=none;fillColor=none;" parent="1" vertex="1">
          <mxGeometry x="798" y="1349" width="183" height="46" as="geometry" />
        </mxCell>
        <mxCell id="y5-CeOcDPug-oQbGVqkk-76" value="" style="image;aspect=fixed;html=1;points=[];align=center;fontSize=12;image=img/lib/azure2/other/Dashboard_Hub.svg;" parent="1" vertex="1">
          <mxGeometry x="1342" y="1337" width="147.77" height="113" as="geometry" />
        </mxCell>
        <mxCell id="y5-CeOcDPug-oQbGVqkk-77" style="edgeStyle=orthogonalEdgeStyle;rounded=0;orthogonalLoop=1;jettySize=auto;html=1;entryX=0.017;entryY=0.566;entryDx=0;entryDy=0;entryPerimeter=0;strokeWidth=2;" parent="1" source="y5-CeOcDPug-oQbGVqkk-70" target="y5-CeOcDPug-oQbGVqkk-76" edge="1">
          <mxGeometry relative="1" as="geometry" />
        </mxCell>
        <mxCell id="y5-CeOcDPug-oQbGVqkk-78" value="&lt;span style=&quot;font-size: 14px;&quot;&gt;&lt;b&gt;NEW RELIC DASHBOARD&lt;/b&gt;&lt;/span&gt;" style="text;html=1;align=center;verticalAlign=middle;resizable=0;points=[];autosize=1;strokeColor=none;fillColor=none;" parent="1" vertex="1">
          <mxGeometry x="1334" y="1448" width="188" height="29" as="geometry" />
        </mxCell>
        <mxCell id="y5-CeOcDPug-oQbGVqkk-80" value="" style="rhombus;whiteSpace=wrap;html=1;" parent="1" vertex="1">
          <mxGeometry x="1712" y="152" width="328" height="127" as="geometry" />
        </mxCell>
        <mxCell id="y5-CeOcDPug-oQbGVqkk-83" value="" style="endArrow=none;html=1;rounded=0;entryX=1;entryY=0.5;entryDx=0;entryDy=0;" parent="1" target="y5-CeOcDPug-oQbGVqkk-80" edge="1">
          <mxGeometry width="50" height="50" relative="1" as="geometry">
            <mxPoint x="2043" y="431" as="sourcePoint" />
            <mxPoint x="2272" y="373" as="targetPoint" />
          </mxGeometry>
        </mxCell>
        <mxCell id="y5-CeOcDPug-oQbGVqkk-84" value="" style="endArrow=none;html=1;rounded=0;entryX=0.5;entryY=1;entryDx=0;entryDy=0;" parent="1" target="y5-CeOcDPug-oQbGVqkk-80" edge="1">
          <mxGeometry width="50" height="50" relative="1" as="geometry">
            <mxPoint x="2043" y="431" as="sourcePoint" />
            <mxPoint x="2050" y="225" as="targetPoint" />
          </mxGeometry>
        </mxCell>
      </root>
    </mxGraphModel>
  </diagram>
</mxfile>
